<?xml version="1.0" encoding="UTF-8"?>
<svg id="_图层_2" data-name="图层 2" xmlns="http://www.w3.org/2000/svg" viewBox="0 0 76.74 76.74">
  <defs>
    <style>
      .cls-1 {
        fill: #e54c1e;
      }
    </style>
  </defs>
  <g id="_图层_1-2" data-name="图层 1">
    <g>
      <polygon class="cls-1" points="6.92 66.98 0 63.46 0 76.74 27.48 76.74 27.48 66.98 6.92 66.98"/>
      <path class="cls-1" d="M56.27,62.94v-15.42h-14.4v-9.52h4.04v5.48h8.99c-5.56-1.5-9.67-6.57-9.67-12.6,0-7.2,5.86-13.07,13.07-13.07s13.07,5.86,13.07,13.07c0,6.03-4.11,11.1-9.67,12.6h12.79v8.09h-4.04v-4.05h-10.13v15.42h8.54l7.89-4.01V0H0V58.93l7.89,4.01h8.54v-15.42H6.31v4.05H2.27v-8.09H15.06c-5.56-1.5-9.67-6.57-9.67-12.6,0-7.2,5.86-13.07,13.07-13.07s13.07,5.86,13.07,13.07c0,6.03-4.11,11.1-9.67,12.6h8.99v-5.48h4.04v9.52h-14.4v15.42h11.05v13.8h13.71v-13.8h11.05Z"/>
      <path class="cls-1" d="M27.48,30.88c0-4.98-4.05-9.03-9.03-9.03s-9.03,4.05-9.03,9.03,4.05,9.03,9.03,9.03,9.03-4.05,9.03-9.03Z"/>
      <path class="cls-1" d="M67.32,30.88c0-4.98-4.05-9.03-9.03-9.03s-9.03,4.05-9.03,9.03,4.05,9.03,9.03,9.03,9.03-4.05,9.03-9.03Z"/>
      <polygon class="cls-1" points="69.82 66.98 49.26 66.98 49.26 76.74 76.74 76.74 76.74 63.46 69.82 66.98"/>
    </g>
  </g>
</svg>