<?xml version="1.0" encoding="UTF-8"?>
<svg id="_图层_2" data-name="图层 2" xmlns="http://www.w3.org/2000/svg" viewBox="0 0 137.66 73.7">
  <defs>
    <style>
      .cls-1 {
        fill: #9fa0a0;
      }
    </style>
  </defs>
  <g id="_图层_1-2" data-name="图层 1">
    <g>
      <path class="cls-1" d="M7.47,11.27H1.24c.4-3.6,1.81-6.34,4.24-8.23C7.91,1.15,10.84,.2,14.28,.2c3.96,0,7.23,1.13,9.82,3.38,2.59,2.26,3.89,5.08,3.89,8.48,0,4.22-2.14,7.45-6.44,9.68,5.03,2.59,7.54,6.16,7.54,10.72,0,3.57-1.37,6.67-4.11,9.3-2.74,2.62-5.99,3.94-9.74,3.94s-7.05-.94-9.81-2.83c-2.76-1.89-4.58-4.88-5.45-8.97H6.37c1.38,4.43,4.22,6.64,8.52,6.64,2.19,0,4.1-.75,5.73-2.26,1.63-1.51,2.45-3.27,2.45-5.28s-.75-4.03-2.25-5.78c-1.5-1.76-3.96-2.67-7.38-2.73v-5.3c2.61-.04,4.66-.69,6.15-1.92,1.49-1.24,2.23-2.83,2.23-4.77s-.69-3.67-2.08-5.05-3.07-2.07-5.06-2.07c-1.88,0-3.38,.47-4.49,1.41s-2.02,2.44-2.72,4.49Z"/>
      <path class="cls-1" d="M40.34,1.64h6.77c4.45,0,8.08,.97,10.9,2.9,2.82,1.93,4.22,4.37,4.22,7.32,0,3.6-2.08,6.6-6.24,9.01,6.44,2.15,9.66,5.87,9.66,11.17,0,3.69-1.66,6.67-4.98,8.93s-7.76,3.39-13.33,3.39h-7.01V1.64Zm5.77,5.16v12.64c3.22-.05,5.68-.66,7.39-1.84,1.71-1.18,2.57-2.82,2.57-4.89,0-1.81-.77-3.26-2.31-4.34-1.54-1.08-3.61-1.63-6.2-1.63-.56,0-1.04,.02-1.44,.07Zm0,17.7v14.62h.47c5.03,0,8.46-.81,10.29-2.41,1.83-1.61,2.75-3.25,2.75-4.93,0-2.21-1.03-3.98-3.09-5.3s-4.87-1.98-8.45-1.98h-1.98Z"/>
      <path class="cls-1" d="M83.4,0l20.17,44.36h-6.12l-4.96-10.93h-18.13l-4.9,10.93h-6.07L83.4,0Zm-.02,13.33l-6.83,15.23h13.74l-6.91-15.23Z"/>
      <path class="cls-1" d="M103,1.64h10.36c8.2,0,14.3,2.17,18.31,6.5,4,4.34,6,9.29,6,14.85s-2.07,10.57-6.2,14.89c-4.13,4.31-10.15,6.47-18.04,6.47h-10.43V1.64Zm5.83,5.7v31.25h.34c4.34,0,7.6-.2,9.79-.59,2.19-.39,4.27-1.25,6.24-2.56,1.97-1.32,3.53-3.07,4.69-5.25,1.16-2.18,1.74-4.58,1.74-7.19,0-3.29-.93-6.26-2.78-8.92-1.86-2.66-4.07-4.45-6.66-5.36s-6.05-1.38-10.41-1.38h-2.95Z"/>
      <path class="cls-1" d="M16.49,45.34h-5.94c-2.96,0-5.37,.74-7.22,2.21s-2.79,3.36-2.79,5.65c0,1.84,.6,3.46,1.8,4.87,1.2,1.41,3.08,2.4,5.63,2.97L0,72.77H4.3l7.61-11.28h.84v11.28h3.75v-27.43Zm-3.75,3.32v9.56c-5.53,.11-8.29-1.49-8.29-4.8,0-1.16,.32-2.11,.97-2.85s1.51-1.24,2.58-1.51,2.66-.4,4.74-.4Z"/>
      <path class="cls-1" d="M18.29,58.89c0-3.96,1.49-7.35,4.48-10.18,2.99-2.83,6.57-4.24,10.77-4.24s7.62,1.42,10.57,4.27c2.96,2.85,4.44,6.23,4.44,10.15,0,4.15-1.46,7.65-4.38,10.51-2.92,2.86-6.51,4.29-10.76,4.29s-7.76-1.44-10.7-4.33c-2.94-2.88-4.41-6.38-4.41-10.48Zm26.27,.17c0-3.03-1.09-5.57-3.27-7.65-2.18-2.07-4.87-3.11-8.05-3.11s-5.62,1.05-7.78,3.16c-2.16,2.11-3.24,4.64-3.24,7.59s1.11,5.53,3.33,7.61c2.22,2.07,4.93,3.11,8.15,3.11,2.96,0,5.51-1.06,7.65-3.17,2.15-2.12,3.22-4.63,3.22-7.54Z"/>
      <path class="cls-1" d="M66.6,45.34h-4.35c-2.86,0-5.19,.62-7,1.86-1.81,1.24-2.71,2.81-2.71,4.7,0,2.31,1.34,4.24,4.01,5.79-4.13,1.38-6.2,3.77-6.2,7.18,0,2.37,1.07,4.28,3.2,5.73s4.98,2.18,8.56,2.18h4.5v-27.43Zm-3.7,3.32v8.12c-2.07-.03-3.65-.42-4.75-1.18-1.1-.76-1.65-1.81-1.65-3.14,0-1.16,.5-2.09,1.49-2.79,.99-.7,2.32-1.04,3.98-1.04,.36,0,.67,.01,.93,.04Zm0,11.37v9.39h-.3c-3.23,0-5.43-.52-6.61-1.55-1.18-1.03-1.77-2.09-1.77-3.17,0-1.42,.66-2.56,1.98-3.4s3.13-1.27,5.43-1.27h1.27Z"/>
      <path class="cls-1" d="M68.39,58.89c0-3.96,1.49-7.35,4.48-10.18,2.99-2.83,6.57-4.24,10.77-4.24s7.62,1.42,10.57,4.27c2.96,2.85,4.44,6.23,4.44,10.15,0,4.15-1.46,7.65-4.38,10.51-2.92,2.86-6.51,4.29-10.76,4.29s-7.76-1.44-10.7-4.33c-2.94-2.88-4.41-6.38-4.41-10.48Zm26.27,.17c0-3.03-1.09-5.57-3.27-7.65-2.18-2.07-4.87-3.11-8.05-3.11s-5.62,1.05-7.78,3.16c-2.16,2.11-3.24,4.64-3.24,7.59s1.11,5.53,3.33,7.61c2.22,2.07,4.93,3.11,8.15,3.11,2.96,0,5.51-1.06,7.65-3.17,2.15-2.12,3.22-4.63,3.22-7.54Z"/>
      <path class="cls-1" d="M100.44,45.34h16.77v3.75h-6.55v23.69h-3.7v-23.69h-6.52v-3.75Z"/>
      <path class="cls-1" d="M137,48.39l-3.04,2.43c-.8-.83-1.53-1.45-2.18-1.86s-1.59-.61-2.82-.61c-1.35,0-2.44,.3-3.28,.91s-1.26,1.39-1.26,2.35c0,.83,.37,1.56,1.1,2.2,.73,.64,1.98,1.33,3.74,2.09,1.76,.76,3.13,1.46,4.12,2.11,.98,.65,1.79,1.37,2.42,2.16,.63,.79,1.1,1.62,1.41,2.5,.31,.87,.46,1.8,.46,2.78,0,2.28-.83,4.22-2.49,5.83-1.66,1.61-3.66,2.41-6.02,2.41s-4.32-.63-6.08-1.88-3.11-3.14-4.06-5.65l3.75-1.05c1.36,3.09,3.45,4.63,6.27,4.63,1.36,0,2.5-.41,3.4-1.22,.91-.82,1.36-1.85,1.36-3.09,0-.74-.24-1.49-.71-2.24s-1.06-1.37-1.77-1.86c-.7-.49-1.82-1.05-3.36-1.67-1.54-.63-2.72-1.21-3.55-1.73-.83-.52-1.54-1.15-2.15-1.87-.6-.72-1.05-1.44-1.33-2.16-.28-.72-.42-1.48-.42-2.3,0-1.97,.79-3.64,2.37-5.02s3.5-2.08,5.75-2.08c1.49,0,3.01,.32,4.54,.97,1.54,.65,2.81,1.63,3.83,2.95Z"/>
    </g>
  </g>
</svg>